<svg xmlns="http://www.w3.org/2000/svg" viewBox="0 0 420 560">
  <defs>
    <linearGradient id="love-bg" x1="0" y1="0" x2="1" y2="1">
      <stop offset="0%" stop-color="#3d0020"/>
      <stop offset="100%" stop-color="#1a000e"/>
    </linearGradient>
    <radialGradient id="love-glow" cx="50%" cy="45%" r="55%">
      <stop offset="0%" stop-color="#f43f5e" stop-opacity="0.22"/>
      <stop offset="100%" stop-color="#f43f5e" stop-opacity="0"/>
    </radialGradient>
  </defs>

  <rect width="420" height="560" fill="url(#love-bg)"/>
  <ellipse cx="210" cy="260" rx="220" ry="250" fill="url(#love-glow)"/>

  <!-- Large center heart (outline) -->
  <path d="M210 210 C222 180 260 180 260 215 C260 245 235 268 210 295 C185 268 160 245 160 215 C160 180 198 180 210 210" fill="none" stroke="#f43f5e" stroke-width="2.5" opacity="0.55"/>

  <!-- Medium heart top-left -->
  <path d="M95 140 C102 122 122 122 122 140 C122 156 110 165 95 178 C80 165 68 156 68 140 C68 122 88 122 95 140" fill="#f43f5e" opacity="0.35"/>

  <!-- Medium heart top-right -->
  <path d="M335 110 C342 92 362 92 362 110 C362 126 350 136 335 148 C320 136 308 126 308 110 C308 92 328 92 335 110" fill="#fb7185" opacity="0.3"/>

  <!-- Small heart bottom-left -->
  <path d="M72 380 C76 370 88 370 88 380 C88 389 81 394 72 402 C63 394 56 389 56 380 C56 370 68 370 72 380" fill="#fda4af" opacity="0.45"/>

  <!-- Small heart bottom-right -->
  <path d="M358 400 C362 390 374 390 374 400 C374 409 367 414 358 422 C349 414 342 409 342 400 C342 390 354 390 358 400" fill="#f43f5e" opacity="0.38"/>

  <!-- Tiny hearts scattered -->
  <path d="M148 90 C151 84 158 84 158 90 C158 96 153 99 148 104 C143 99 138 96 138 90 C138 84 145 84 148 90" fill="#fda4af" opacity="0.5"/>
  <path d="M290 330 C293 324 300 324 300 330 C300 336 295 339 290 344 C285 339 280 336 280 330 C280 324 287 324 290 330" fill="#fb7185" opacity="0.4"/>
  <path d="M55 250 C57 246 62 246 62 250 C62 254 58 257 55 260 C52 257 48 254 48 250 C48 246 53 246 55 250" fill="#fda4af" opacity="0.35"/>
  <path d="M375 290 C377 286 382 286 382 290 C382 294 378 297 375 300 C372 297 368 294 368 290 C368 286 373 286 375 290" fill="#f43f5e" opacity="0.38"/>
  <path d="M210 450 C213 444 220 444 220 450 C220 456 215 459 210 464 C205 459 200 456 200 450 C200 444 207 444 210 450" fill="#fda4af" opacity="0.42"/>
  <path d="M130 470 C132 466 137 466 137 470 C137 474 133 477 130 480 C127 477 123 474 123 470 C123 466 128 466 130 470" fill="#fb7185" opacity="0.3"/>
  <path d="M305 480 C307 476 312 476 312 480 C312 484 308 487 305 490 C302 487 298 484 298 480 C298 476 303 476 305 480" fill="#f43f5e" opacity="0.3"/>

  <!-- Star sparkles -->
  <circle cx="178" cy="130" r="2" fill="#fbbf24" opacity="0.7"/>
  <circle cx="255" cy="165" r="1.5" fill="#fbbf24" opacity="0.6"/>
  <circle cx="120" cy="310" r="2" fill="white" opacity="0.5"/>
  <circle cx="320" cy="220" r="1.5" fill="white" opacity="0.45"/>
  <circle cx="85" cy="195" r="1.5" fill="#fbbf24" opacity="0.5"/>
  <circle cx="350" cy="165" r="2" fill="white" opacity="0.45"/>
  <circle cx="240" cy="390" r="1.5" fill="#fbbf24" opacity="0.5"/>
  <circle cx="170" cy="420" r="2" fill="white" opacity="0.4"/>
  <circle cx="380" cy="340" r="1.5" fill="#fbbf24" opacity="0.45"/>
  <circle cx="38" cy="320" r="2" fill="white" opacity="0.4"/>

  <!-- 4-point star shapes -->
  <path d="M330 70 L332 78 L340 80 L332 82 L330 90 L328 82 L320 80 L328 78 Z" fill="#fbbf24" opacity="0.65"/>
  <path d="M75 480 L77 486 L83 488 L77 490 L75 496 L73 490 L67 488 L73 486 Z" fill="#fda4af" opacity="0.5"/>
  <path d="M385 150 L386.5 155 L392 156.5 L386.5 158 L385 163 L383.5 158 L378 156.5 L383.5 155 Z" fill="white" opacity="0.4"/>

  <!-- Bokeh circles -->
  <circle cx="40" cy="140" r="18" fill="#f43f5e" opacity="0.06"/>
  <circle cx="390" cy="420" r="22" fill="#fb7185" opacity="0.07"/>
  <circle cx="200" cy="500" r="16" fill="#f43f5e" opacity="0.06"/>
  <circle cx="380" cy="60" r="14" fill="#fda4af" opacity="0.08"/>
</svg>
