<svg xmlns="http://www.w3.org/2000/svg" viewBox="0 0 420 560">
  <defs>
    <linearGradient id="mem-bg" x1="0" y1="0" x2="1" y2="1">
      <stop offset="0%" stop-color="#020c1b"/>
      <stop offset="100%" stop-color="#071428"/>
    </linearGradient>
    <radialGradient id="center-glow" cx="50%" cy="50%" r="50%">
      <stop offset="0%" stop-color="#0ea5e9" stop-opacity="0.18"/>
      <stop offset="100%" stop-color="#0ea5e9" stop-opacity="0"/>
    </radialGradient>
  </defs>

  <rect width="420" height="560" fill="url(#mem-bg)"/>
  <ellipse cx="210" cy="280" rx="210" ry="230" fill="url(#center-glow)"/>

  <!-- Neural connections -->
  <line x1="80" y1="100" x2="200" y2="70" stroke="#38bdf8" stroke-width="0.8" opacity="0.35"/>
  <line x1="80" y1="100" x2="60" y2="200" stroke="#38bdf8" stroke-width="0.8" opacity="0.3"/>
  <line x1="80" y1="100" x2="170" y2="180" stroke="#38bdf8" stroke-width="0.8" opacity="0.28"/>
  <line x1="200" y1="70" x2="340" y2="110" stroke="#38bdf8" stroke-width="0.8" opacity="0.32"/>
  <line x1="200" y1="70" x2="285" y2="160" stroke="#38bdf8" stroke-width="0.8" opacity="0.3"/>
  <line x1="340" y1="110" x2="380" y2="200" stroke="#38bdf8" stroke-width="0.8" opacity="0.35"/>
  <line x1="340" y1="110" x2="285" y2="160" stroke="#38bdf8" stroke-width="0.8" opacity="0.28"/>
  <line x1="60" y1="200" x2="170" y2="180" stroke="#38bdf8" stroke-width="0.8" opacity="0.3"/>
  <line x1="60" y1="200" x2="100" y2="295" stroke="#38bdf8" stroke-width="0.8" opacity="0.32"/>
  <line x1="60" y1="200" x2="32" y2="310" stroke="#38bdf8" stroke-width="0.8" opacity="0.28"/>
  <line x1="170" y1="180" x2="285" y2="160" stroke="#38bdf8" stroke-width="0.8" opacity="0.3"/>
  <line x1="170" y1="180" x2="210" y2="260" stroke="#0ea5e9" stroke-width="1" opacity="0.4"/>
  <line x1="285" y1="160" x2="380" y2="200" stroke="#38bdf8" stroke-width="0.8" opacity="0.3"/>
  <line x1="285" y1="160" x2="320" y2="285" stroke="#38bdf8" stroke-width="0.8" opacity="0.32"/>
  <line x1="380" y1="200" x2="400" y2="310" stroke="#38bdf8" stroke-width="0.8" opacity="0.3"/>
  <line x1="100" y1="295" x2="210" y2="260" stroke="#0ea5e9" stroke-width="1" opacity="0.38"/>
  <line x1="100" y1="295" x2="160" y2="378" stroke="#38bdf8" stroke-width="0.8" opacity="0.3"/>
  <line x1="100" y1="295" x2="32" y2="310" stroke="#38bdf8" stroke-width="0.8" opacity="0.28"/>
  <line x1="210" y1="260" x2="320" y2="285" stroke="#0ea5e9" stroke-width="1" opacity="0.42"/>
  <line x1="210" y1="260" x2="160" y2="378" stroke="#38bdf8" stroke-width="0.8" opacity="0.32"/>
  <line x1="210" y1="260" x2="275" y2="400" stroke="#38bdf8" stroke-width="0.8" opacity="0.3"/>
  <line x1="320" y1="285" x2="400" y2="310" stroke="#38bdf8" stroke-width="0.8" opacity="0.3"/>
  <line x1="320" y1="285" x2="275" y2="400" stroke="#38bdf8" stroke-width="0.8" opacity="0.32"/>
  <line x1="320" y1="285" x2="378" y2="388" stroke="#38bdf8" stroke-width="0.8" opacity="0.28"/>
  <line x1="32" y1="310" x2="50" y2="400" stroke="#38bdf8" stroke-width="0.8" opacity="0.28"/>
  <line x1="160" y1="378" x2="50" y2="400" stroke="#38bdf8" stroke-width="0.8" opacity="0.3"/>
  <line x1="160" y1="378" x2="275" y2="400" stroke="#38bdf8" stroke-width="0.8" opacity="0.3"/>
  <line x1="160" y1="378" x2="115" y2="475" stroke="#38bdf8" stroke-width="0.8" opacity="0.28"/>
  <line x1="275" y1="400" x2="378" y2="388" stroke="#38bdf8" stroke-width="0.8" opacity="0.3"/>
  <line x1="275" y1="400" x2="230" y2="498" stroke="#38bdf8" stroke-width="0.8" opacity="0.28"/>
  <line x1="275" y1="400" x2="348" y2="468" stroke="#38bdf8" stroke-width="0.8" opacity="0.28"/>
  <line x1="50" y1="400" x2="115" y2="475" stroke="#38bdf8" stroke-width="0.8" opacity="0.28"/>
  <line x1="378" y1="388" x2="400" y2="310" stroke="#38bdf8" stroke-width="0.8" opacity="0.28"/>
  <line x1="378" y1="388" x2="348" y2="468" stroke="#38bdf8" stroke-width="0.8" opacity="0.28"/>
  <line x1="115" y1="475" x2="230" y2="498" stroke="#38bdf8" stroke-width="0.8" opacity="0.28"/>
  <line x1="230" y1="498" x2="348" y2="468" stroke="#38bdf8" stroke-width="0.8" opacity="0.28"/>

  <!-- Long cross connections for visual depth -->
  <line x1="80" y1="100" x2="320" y2="285" stroke="#7dd3fc" stroke-width="0.5" opacity="0.15"/>
  <line x1="200" y1="70" x2="160" y2="378" stroke="#7dd3fc" stroke-width="0.5" opacity="0.12"/>
  <line x1="60" y1="200" x2="378" y2="388" stroke="#7dd3fc" stroke-width="0.5" opacity="0.12"/>
  <line x1="340" y1="110" x2="115" y2="475" stroke="#7dd3fc" stroke-width="0.5" opacity="0.12"/>

  <!-- Neural nodes -->
  <!-- Hub nodes (larger, brighter) -->
  <circle cx="210" cy="260" r="9" fill="#0ea5e9" opacity="0.95"/>
  <circle cx="170" cy="180" r="7" fill="#38bdf8" opacity="0.9"/>
  <circle cx="285" cy="160" r="7" fill="#38bdf8" opacity="0.9"/>
  <circle cx="160" cy="378" r="7" fill="#38bdf8" opacity="0.88"/>
  <circle cx="275" cy="400" r="7" fill="#38bdf8" opacity="0.88"/>

  <!-- Regular nodes -->
  <circle cx="80" cy="100" r="5" fill="#7dd3fc" opacity="0.85"/>
  <circle cx="200" cy="70" r="5" fill="#7dd3fc" opacity="0.85"/>
  <circle cx="340" cy="110" r="5" fill="#7dd3fc" opacity="0.85"/>
  <circle cx="60" cy="200" r="5" fill="#7dd3fc" opacity="0.82"/>
  <circle cx="380" cy="200" r="5" fill="#7dd3fc" opacity="0.82"/>
  <circle cx="100" cy="295" r="5" fill="#7dd3fc" opacity="0.82"/>
  <circle cx="320" cy="285" r="5" fill="#7dd3fc" opacity="0.82"/>
  <circle cx="400" cy="310" r="5" fill="#7dd3fc" opacity="0.78"/>
  <circle cx="32" cy="310" r="4" fill="#7dd3fc" opacity="0.75"/>
  <circle cx="50" cy="400" r="4" fill="#7dd3fc" opacity="0.75"/>
  <circle cx="378" cy="388" r="5" fill="#7dd3fc" opacity="0.78"/>
  <circle cx="115" cy="475" r="4" fill="#7dd3fc" opacity="0.72"/>
  <circle cx="230" cy="498" r="4" fill="#7dd3fc" opacity="0.72"/>
  <circle cx="348" cy="468" r="4" fill="#7dd3fc" opacity="0.72"/>

  <!-- Tiny scattered nodes -->
  <circle cx="140" cy="130" r="3" fill="#bae6fd" opacity="0.6"/>
  <circle cx="258" cy="90" r="3" fill="#bae6fd" opacity="0.6"/>
  <circle cx="355" cy="240" r="3" fill="#bae6fd" opacity="0.55"/>
  <circle cx="25" cy="250" r="3" fill="#bae6fd" opacity="0.55"/>
  <circle cx="188" cy="450" r="3" fill="#bae6fd" opacity="0.55"/>
  <circle cx="408" cy="440" r="3" fill="#bae6fd" opacity="0.52"/>
</svg>
